<svg width="24" height="24" viewBox="0 0 24 24" fill="none" xmlns="http://www.w3.org/2000/svg">
<path d="M7.58588 8.11755C7.33255 9.39683 6.28171 10.3659 4.98615 10.515C3.8692 10.6436 3 11.5974 3 12.75C3 13.4789 3.34662 14.1268 3.88394 14.538C4.25739 14.8108 4.5 15.2521 4.5 15.75C4.5 16.5784 3.82846 17.25 3 17.25C2.65283 17.25 2.33295 17.1324 2.0787 16.9343C0.815643 15.9756 0 14.458 0 12.75C0 10.0558 2.02945 7.83557 4.6431 7.5347C5.32452 4.09407 8.35931 1.5 12 1.5C15.1016 1.5 17.7636 3.3828 18.9052 6.06783C21.7894 6.50426 24 8.99397 24 12C24 13.7974 23.2097 15.4101 21.9576 16.5098C21.8357 16.6237 21.4734 16.8516 21 16.8516C20.1715 16.8516 19.5 16.18 19.5 15.3516C19.5 14.8851 19.713 14.4683 20.0469 14.1932C20.6334 13.6456 21 12.8656 21 12C21 10.4997 19.8958 9.25188 18.4563 9.03406C17.4269 8.87829 16.5517 8.19985 16.1443 7.24165C15.4568 5.62461 13.8563 4.5 12 4.5C9.81903 4.5 7.99448 6.05458 7.58588 8.11755Z" fill="#222261"/>
<path fill-rule="evenodd" clip-rule="evenodd" d="M7.30545 12.7633L8.96979 13.1732C9.4433 12.7416 10.0093 12.4098 10.6345 12.2109L11.1115 10.5653C11.4014 10.5223 11.6982 10.5 12.0001 10.5C12.302 10.5 12.5988 10.5223 12.8887 10.5653L13.3657 12.211C13.9909 12.4099 14.5568 12.7417 15.0303 13.1732L16.6947 12.7633C17.063 13.2253 17.3644 13.743 17.5845 14.3016L16.397 15.5384C16.4645 15.8482 16.5 16.17 16.5 16.5C16.5 16.83 16.4645 17.1518 16.397 17.4616L17.5845 18.6984C17.3644 19.257 17.063 19.7747 16.6947 20.2367L15.0303 19.8268C14.5568 20.2583 13.9909 20.5901 13.3657 20.789L12.8887 22.4347C12.5988 22.4777 12.302 22.5 12.0001 22.5C11.6982 22.5 11.4014 22.4777 11.1115 22.4347L10.6345 20.7891C10.0093 20.5902 9.4433 20.2584 8.96979 19.8268L7.30545 20.2367C6.93723 19.7747 6.63574 19.257 6.41565 18.6984L7.603 17.4618C7.53552 17.1519 7.5 16.8301 7.5 16.5C7.5 16.1699 7.53552 15.8481 7.603 15.5382L6.41565 14.3016C6.63574 13.743 6.93723 13.2253 7.30545 12.7633ZM12 18C12.8285 18 13.5 17.3284 13.5 16.5C13.5 15.6716 12.8285 15 12 15C11.1715 15 10.5 15.6716 10.5 16.5C10.5 17.3284 11.1715 18 12 18Z" fill="#222261"/>
</svg>
