<svg width="140" height="28" viewBox="0 0 140 28" fill="none" xmlns="http://www.w3.org/2000/svg">
<path d="M72.0751 13.5993C70.9191 13.5993 70.0859 13.9823 69.2409 14.3726V23.203C70.0502 23.281 70.5142 23.281 71.282 23.281C74.0567 23.281 74.437 21.9969 74.437 20.2041V15.9866C74.437 14.6626 74.0022 13.5993 72.0751 13.5993V13.5993ZM53.648 13.1173C51.7228 13.1173 51.2835 14.1853 51.2835 15.508V16.2512H56.0098V15.508C56.0098 14.1853 55.5705 13.1173 53.648 13.1173ZM17.9509 22.3086C17.9509 23.3549 18.4395 23.8984 19.5177 23.8984C20.6744 23.8984 21.3593 23.5173 22.2036 23.1258V21.0311H19.6745C18.4771 21.0311 17.9509 21.2564 17.9509 22.3086ZM90.0001 13.5993C88.0718 13.5993 87.4037 14.6626 87.4037 15.9866V20.8183C87.4037 22.1456 88.0718 23.2122 90.0001 23.2122C91.9233 23.2122 92.5966 22.1456 92.5966 20.8183V15.9866C92.5959 14.6626 91.9227 13.5993 90.0001 13.5993V13.5993ZM8.50081 27.7263H2.83231V13.8618H0V9.08452H2.83295V6.21524C2.83295 2.31729 4.43151 0 8.97513 0H12.758V4.77864H10.3936C8.62458 4.77864 8.50794 5.44652 8.50794 6.69258L8.50081 9.08386H12.7839L12.2831 13.8612H8.50081V27.7263V27.7263ZM27.8734 27.7623H23.149L22.9449 26.5549C20.7878 27.7623 18.8626 27.9581 17.5926 27.9581C14.1278 27.9581 12.2837 25.6192 12.2837 22.3845C12.2837 18.5685 14.4356 17.2065 18.2853 17.2065H22.2036V16.3815C22.2036 14.4335 21.9826 13.8618 19.0181 13.8618H14.1713L14.6449 9.08452H19.9428C26.4472 9.08452 27.8734 11.1608 27.8734 16.4201V27.7623V27.7623ZM43.9387 14.2122C40.9988 13.7027 40.1545 13.5908 38.74 13.5908C36.1992 13.5908 35.4314 14.1572 35.4314 16.3376V20.4621C35.4314 22.6425 36.1992 23.2115 38.74 23.2115C40.1545 23.2115 40.9988 23.0976 43.9387 22.5862V27.2463C41.3636 27.8298 39.686 27.983 38.2682 27.983C32.1824 27.983 29.7635 24.749 29.7635 20.0771V16.7305C29.7635 12.0546 32.1824 8.81474 38.2682 8.81474C39.686 8.81474 41.3636 8.96862 43.9387 9.55465V14.2122V14.2122ZM61.6777 20.0771H51.2829V20.4621C51.2829 22.6425 52.0514 23.2115 54.5914 23.2115C56.8749 23.2115 58.2687 23.0976 61.2034 22.5862V27.2463C58.373 27.8298 56.8982 27.983 54.1216 27.983C48.0352 27.983 45.615 24.749 45.615 20.0771V16.2505C45.615 12.1627 47.4105 8.81474 53.6473 8.81474C59.8841 8.81474 61.6777 12.124 61.6777 16.2505V20.0771V20.0771ZM80.1042 20.1655C80.1042 24.6809 78.8271 27.9745 71.0902 27.9745C68.2961 27.9745 66.6574 27.7263 63.5737 27.247V1.43529L69.2402 0.47996V9.50882C70.4649 9.04916 72.0499 8.8154 73.4923 8.8154C79.1595 8.8154 80.1036 11.3828 80.1036 15.5086V20.1655H80.1042ZM98.269 20.2637C98.269 24.159 96.6775 27.9371 90.0189 27.9371C83.3571 27.9371 81.7358 24.159 81.7358 20.2637V16.5026C81.7358 12.6053 83.3571 8.82653 90.0189 8.82653C96.6775 8.82653 98.269 12.6053 98.269 16.5026V20.2637ZM116.421 20.2637C116.421 24.159 114.828 27.9371 108.171 27.9371C101.509 27.9371 99.8876 24.159 99.8876 20.2637V16.5026C99.8876 12.6053 101.509 8.82653 108.171 8.82653C114.828 8.82653 116.421 12.6053 116.421 16.5026V20.2637ZM135.05 27.7263H128.908L123.713 18.9633V27.7263H118.045V1.43464L123.713 0.479304V17.4049L128.908 9.08452H135.05L129.379 18.1644L135.05 27.7263V27.7263ZM108.151 13.5993C106.226 13.5993 105.558 14.6626 105.558 15.9866V20.8183C105.558 22.1456 106.226 23.2122 108.151 23.2122C110.074 23.2122 110.754 22.1456 110.754 20.8183V15.9866C110.754 14.6626 110.074 13.5993 108.151 13.5993ZM138.285 24.4563C139.24 24.4563 140 25.2427 140 26.2249C140 27.2221 139.239 28 138.278 28C137.322 28 136.546 27.2221 136.546 26.2249C136.546 25.2427 137.322 24.4563 138.278 24.4563H138.285V24.4563ZM138.278 24.7313C137.509 24.7313 136.88 25.3998 136.88 26.2249C136.88 27.065 137.51 27.725 138.285 27.725C139.062 27.7328 139.682 27.065 139.682 26.2327C139.682 25.4005 139.062 24.7313 138.285 24.7313H138.278V24.7313ZM137.952 27.2542H137.641V25.2807C137.805 25.2578 137.96 25.2348 138.193 25.2348C138.489 25.2348 138.682 25.2977 138.801 25.3835C138.915 25.4706 138.977 25.6035 138.977 25.7914C138.977 26.052 138.807 26.2085 138.598 26.272V26.2871C138.768 26.3192 138.884 26.475 138.924 26.7651C138.969 27.0722 139.016 27.1894 139.047 27.2535H138.721C138.675 27.1894 138.628 27.0093 138.589 26.7494C138.543 26.4986 138.418 26.4043 138.169 26.4043H137.953V27.2542H137.952ZM137.952 26.162H138.178C138.433 26.162 138.65 26.0671 138.65 25.8228C138.65 25.65 138.527 25.4778 138.178 25.4778C138.076 25.4778 138.006 25.4856 137.952 25.4928V26.162Z" fill="#222261"/>
</svg>
