<?xml version="1.0" encoding="UTF-8"?>
<svg width="200px" height="47px" viewBox="0 0 200 47" version="1.1" xmlns="http://www.w3.org/2000/svg" xmlns:xlink="http://www.w3.org/1999/xlink">
    <!-- Generator: Sketch 55.2 (78181) - https://sketchapp.com -->
    <title>finsweet-logo-purple copy 4</title>
    <desc>Created with Sketch.</desc>
    <g id="finsweet-logo-purple-copy-4" stroke="none" stroke-width="1" fill="none" fill-rule="evenodd">
        <g id="finsweet-logo-purple-copy-2" fill="#FFFFFF" fill-rule="nonzero">
            <path d="M3.1245098,8.6274375 L3.1245098,18.0284167 C3.1245098,19.5706042 3.1245098,21.30275 0,21.30275 L0,23.8427083 L0,23.8769792 L0,26.3532917 C3.1245098,26.3532917 3.1245098,28.0844583 3.1245098,29.627625 L3.1245098,39.027625 C3.1245098,46.3233958 7.02843137,46.853125 13.6666667,46.853125 L13.6666667,41.1788542 C10.5421569,41.1788542 9.37156863,40.707875 9.37156863,38.8876042 L9.37156863,29.5796458 C9.37156863,27.430375 9.51568627,25.1851458 7.68333333,23.8270417 C9.51568627,22.4708958 9.37156863,20.2256667 9.37156863,18.0744375 L9.37156863,8.7684375 C9.37156863,6.950125 10.5431373,6.4771875 13.6666667,6.4771875 L13.6666667,0.80193615 C7.02843137,0.800958333 3.1245098,1.3306875 3.1245098,8.6274375 L3.1245098,8.6274375 Z M20.6911765,8.32291667 C18.9843137,9.7995 18.1313725,11.920375 18.1313725,14.6835833 L18.1313725,17.1657708 L14.5656863,17.1657708 L14.5656863,22.3524167 L18.1313725,22.3524167 L18.1313725,41.1485 L25.8794118,41.1485 L25.8794118,22.3524167 L30.6794118,22.3524167 L30.6794118,17.1657708 L25.8794118,17.1657708 L25.8794118,15.3954375 C25.8794118,14.4946042 26.1382353,13.800375 26.6558824,13.31275 C27.1735294,12.825125 27.9137255,12.5822917 28.8735294,12.5822917 C29.345098,12.5822917 31.7539216,12.590125 31.7539216,12.590125 L31.7539216,6.5711875 C31.7539216,6.5711875 27.4529412,6.52320833 26.8382353,6.52320833 C24.9676471,6.52320833 22.3980392,6.844375 20.6911765,8.32291667 L20.6911765,8.32291667 Z M35.1617647,12.5685833 L42.9107843,12.5685833 L42.9107843,6.5711875 L35.1617647,6.5711875 L35.1617647,12.5685833 L35.1617647,12.5685833 Z M35.1617647,41.1494792 L42.9107843,41.1494792 L42.9107843,17.1657708 L35.1617647,17.1657708 L35.1617647,41.1494792 L35.1617647,41.1494792 Z M62.0186275,16.7222083 C60.5558824,16.7222083 59.2294118,17.0590417 58.0411765,17.73075 C56.8529412,18.4024583 55.854902,19.3385417 55.0470588,20.5341042 L54.75,17.1657708 L47.5039216,17.1657708 L47.5039216,41.1485 L55.2068627,41.1485 L55.2068627,23.905375 C55.6029412,23.4618125 56.0794118,23.11225 56.6352941,22.8635417 C57.1911765,22.6148333 57.827451,22.4865625 58.5441176,22.4865625 C59.6872549,22.4865625 60.5519608,22.7715 61.1382353,23.3394167 C61.7245098,23.9092917 62.0186275,24.8786667 62.0186275,26.2543958 L62.0186275,41.1504583 L69.7441176,41.1504583 L69.7441176,26.2769167 C69.7441176,22.9516667 69.0617647,20.5282292 67.6990196,19.005625 C66.3352941,17.4830208 64.4411765,16.7222083 62.0186275,16.7222083 L62.0186275,16.7222083 Z M93.1088235,29.3240833 C91.6539216,28.1794375 89.4166667,27.3167917 86.4,26.7410417 C84.4803922,26.3885417 83.2029412,25.9870833 82.5715686,25.5435208 C81.9392157,25.1019167 81.622549,24.5604375 81.622549,23.9259375 C81.622549,23.2601042 81.8970588,22.7166667 82.445098,22.2868125 C82.9931373,21.8579375 83.6715686,21.6425208 84.4794118,21.6425208 C85.5764706,21.6425208 86.372549,21.8873125 86.8676471,22.3749375 C87.3627451,22.8625625 87.6107843,23.5793125 87.6107843,24.5242083 L95.1078431,24.5242083 L95.1539216,24.3920208 C95.2460784,22.1281875 94.3166667,20.2883333 92.3656863,18.8616875 C90.4147059,17.4350417 87.7931373,16.7212292 84.5019608,16.7212292 C81.377451,16.7212292 78.9019608,17.4575625 77.072549,18.9282708 C75.2441176,20.3989792 74.3303922,22.1888958 74.3303922,24.3009583 C74.3303922,26.2955208 75.0617647,27.871 76.5245098,29.0225 C77.9872549,30.1759583 80.1588235,31.0248958 83.0392157,31.57225 C84.8676471,31.9413958 86.1284314,32.3585208 86.8215686,32.823625 C87.5156863,33.2897083 87.8617647,33.8194375 87.8617647,34.4069375 C87.8617647,35.1315208 87.595098,35.6916042 87.0617647,36.0803333 C86.5284314,36.472 85.7441176,36.6707708 84.7078431,36.6707708 C83.4588235,36.6707708 82.4941176,36.4171667 81.8166667,35.9158333 C81.1382353,35.4145 80.7843137,34.5939583 80.7539216,33.4561667 L73.7598039,33.4561667 L73.7147059,33.5883542 C73.6235294,35.6289375 74.5558824,37.476625 76.5147059,39.1304375 C78.472549,40.7862083 81.1352941,41.612625 84.5029412,41.612625 C87.7490196,41.612625 90.3578431,40.9144792 92.3313725,39.5172083 C94.3058824,38.1209167 95.2921569,36.3456875 95.2921569,34.186625 C95.2921569,32.0902292 94.5637255,30.4687292 93.1088235,29.3240833 L93.1088235,29.3240833 Z M120.688235,31.0640625 L120.55098,31.0640625 L116.483333,17.1677292 L111.613725,17.1677292 L107.591176,31.1766667 L107.453922,31.1766667 L104.734314,17.1677292 L97.6029412,17.1677292 L103.431373,41.1504583 L109.947059,41.1504583 L113.991176,28.4281458 L114.128431,28.4281458 L118.151961,41.1504583 L124.689216,41.1504583 L130.495098,17.1677292 L123.363725,17.1677292 L120.688235,31.0640625 L120.688235,31.0640625 Z M143.611765,16.7220694 C139.939216,16.7075208 137.114706,17.8570625 135.142157,20.1698542 C133.166667,22.4816667 132.180392,25.4632292 132.180392,29.1125833 L132.180392,29.9556458 C132.180392,33.2946042 133.266667,36.0734792 135.436275,38.2903125 C137.607843,40.508125 140.515686,41.6155625 144.157843,41.6155625 C146.123529,41.6155625 147.963725,41.3609792 149.678431,40.8508333 C151.392157,40.3416667 152.791176,39.70325 153.871569,38.9346042 L152.044118,34.3677708 C150.702941,34.9161042 149.594118,35.2989583 148.717647,35.5212292 C147.840196,35.7444792 146.670588,35.855125 145.207843,35.855125 C143.759804,35.855125 142.602941,35.4595417 141.734314,34.6693542 C140.864706,33.8762292 140.348039,32.8686667 140.179412,31.64275 L140.226471,31.5086042 L154.35098,31.5086042 L154.35098,27.583125 C154.35098,24.2441667 153.398039,21.5994375 151.494118,19.6479583 C149.592157,17.6974583 146.962745,16.7220694 143.611765,16.7220694 L143.611765,16.7220694 Z M146.811765,26.831125 L140.159804,26.831125 L140.091176,26.7214583 C140.213725,25.4348333 140.552941,24.4076875 141.109804,23.6390417 C141.664706,22.8723542 142.5,22.4875417 143.612745,22.4875417 C144.709804,22.4875417 145.515686,22.812625 146.036275,23.4627917 C146.553922,24.1129583 146.813725,25.0441458 146.813725,26.255375 L146.811765,26.831125 L146.811765,26.831125 L146.811765,26.831125 Z M169.537255,16.7220694 C165.864706,16.7075208 163.042157,17.8570625 161.067647,20.1698542 C159.095098,22.4816667 158.106863,25.4632292 158.106863,29.1125833 L158.106863,29.9556458 C158.106863,33.2946042 159.193137,36.0734792 161.364706,38.2903125 C163.537255,40.508125 166.442157,41.6155625 170.084314,41.6155625 C172.05098,41.6155625 173.891176,41.3609792 175.606863,40.8508333 C177.320588,40.3416667 178.718627,39.70325 179.8,38.9346042 L177.971569,34.3677708 C176.630392,34.9161042 175.522549,35.2989583 174.645098,35.5212292 C173.766667,35.7444792 172.59902,35.855125 171.135294,35.855125 C169.688235,35.855125 168.531373,35.4595417 167.661765,34.6693542 C166.792157,33.8762292 166.27549,32.8686667 166.106863,31.64275 L166.152941,31.5086042 L180.278431,31.5086042 L180.278431,27.583125 C180.278431,24.2441667 179.32549,21.5994375 177.421569,19.6479583 C175.516667,17.6974583 172.890196,16.7220694 169.537255,16.7220694 L169.537255,16.7220694 Z M172.736275,26.831125 L166.086275,26.831125 L166.017647,26.7214583 C166.140196,25.4348333 166.479412,24.4076875 167.034314,23.6390417 C167.589216,22.8723542 168.42451,22.4875417 169.537255,22.4875417 C170.634314,22.4875417 171.442157,22.812625 171.961765,23.4627917 C172.481373,24.1129583 172.739216,25.0441458 172.739216,26.255375 L172.739216,26.8321042 L172.736275,26.8321042 L172.736275,26.831125 Z M196.15098,34.9288333 C195.191176,34.9288333 194.45098,34.686 193.933333,34.198375 C193.415686,33.71075 193.155882,33.0145625 193.155882,32.1137292 L193.155882,22.3945208 L197.17549,22.3945208 L197.17549,17.2059167 L193.155882,17.2059167 L193.155882,6.533 L185.407843,6.533 L185.407843,17.2059167 L181.841176,17.2059167 L181.841176,22.3945208 L185.407843,22.3945208 L185.407843,32.8255833 C185.407843,35.5887917 186.260784,37.7096667 187.966667,39.1882083 C189.672549,40.6677292 192.241176,40.9879167 194.114706,40.9879167 C194.730392,40.9879167 199.031373,40.9399375 199.031373,40.9399375 L199.031373,34.921 C199.031373,34.921 196.62451,34.9288333 196.15098,34.9288333 L196.15098,34.9288333 Z" id="Shape"></path>
        </g>
    </g>
</svg>