<svg width="24" height="24" viewBox="0 0 24 24" fill="none" xmlns="http://www.w3.org/2000/svg">
<path fill-rule="evenodd" clip-rule="evenodd" d="M19.9884 10.9884C18.0774 12.8993 15.4686 13.4145 13.5 13.4897V21C13.5 21.8284 12.8284 22.5 12 22.5C11.1716 22.5 10.5 21.8284 10.5 21V16.4897C8.53136 16.4145 5.92256 15.8993 4.01163 13.9884C0.523256 10.5 1.68605 4.68605 1.68605 4.68605C1.68605 4.68605 7.5 3.52326 10.9884 7.01163C11.0285 7.05172 11.0679 7.09211 11.1068 7.13281C11.486 6.03002 12.0846 4.9387 13.0116 4.01163C16.5 0.523256 22.314 1.68605 22.314 1.68605C22.314 1.68605 23.4767 7.5 19.9884 10.9884ZM13.5138 10.4862C13.6074 10.4815 13.7025 10.4756 13.799 10.4681C15.3413 10.3495 16.8397 9.89443 17.8671 8.86705C18.8944 7.83968 19.3495 6.34128 19.4681 4.79898C19.4756 4.70253 19.4815 4.60739 19.4862 4.5138C19.3926 4.51848 19.2975 4.52444 19.201 4.53186C17.6587 4.6505 16.1603 5.10557 15.1329 6.13295C14.1056 7.16032 13.6505 8.65873 13.5319 10.201C13.5244 10.2975 13.5185 10.3926 13.5138 10.4862ZM10.201 13.4681C10.2975 13.4756 10.3926 13.4815 10.4862 13.4862C10.4815 13.3926 10.4756 13.2975 10.4681 13.201C10.3495 11.6587 9.89443 10.1603 8.86705 9.13295C7.83968 8.10557 6.34127 7.6505 4.79898 7.53186C4.70253 7.52444 4.60739 7.51848 4.5138 7.5138C4.51847 7.60739 4.52444 7.70253 4.53186 7.79898C4.6505 9.34128 5.10557 10.8397 6.13295 11.8671C7.16032 12.8944 8.65872 13.3495 10.201 13.4681Z" fill="#222261"/>
</svg>
