<svg width="1280" height="384" viewBox="0 0 1280 384" fill="none" xmlns="http://www.w3.org/2000/svg">
<rect width="1280" height="384" fill="#F4F0FF"/>
<g opacity="0.2">
<path fill-rule="evenodd" clip-rule="evenodd" d="M639 185C639 188.314 636.314 191 633 191C629.686 191 627 188.314 627 185C627 181.686 629.686 179 633 179C636.314 179 639 181.686 639 185ZM636.5 185C636.5 186.933 634.933 188.5 633 188.5C631.067 188.5 629.5 186.933 629.5 185C629.5 183.067 631.067 181.5 633 181.5C634.933 181.5 636.5 183.067 636.5 185Z" fill="#2F2A6B"/>
<path fill-rule="evenodd" clip-rule="evenodd" d="M640 164C624.536 164 612 176.536 612 192C612 207.464 624.536 220 640 220C655.464 220 668 207.464 668 192C668 176.536 655.464 164 640 164ZM614.5 192C614.5 200.12 618.295 207.354 624.209 212.023L641.373 194.859C644.205 192.027 648.795 192.027 651.627 194.859L661.877 205.109C664.177 201.278 665.5 196.794 665.5 192C665.5 177.917 654.083 166.5 640 166.5C625.917 166.5 614.5 177.917 614.5 192ZM640 217.5C634.946 217.5 630.236 216.03 626.274 213.494L643.141 196.627C644.996 194.772 648.004 194.772 649.859 196.627L660.458 207.225C655.809 213.462 648.376 217.5 640 217.5Z" fill="#2F2A6B"/>
</g>
</svg>
