<svg width="512" height="320" viewBox="0 0 512 320" fill="none" xmlns="http://www.w3.org/2000/svg">
<rect width="512" height="320" fill="#F4F0FF"/>
<g opacity="0.2">
<path fill-rule="evenodd" clip-rule="evenodd" d="M255 153C255 156.314 252.314 159 249 159C245.686 159 243 156.314 243 153C243 149.686 245.686 147 249 147C252.314 147 255 149.686 255 153ZM252.5 153C252.5 154.933 250.933 156.5 249 156.5C247.067 156.5 245.5 154.933 245.5 153C245.5 151.067 247.067 149.5 249 149.5C250.933 149.5 252.5 151.067 252.5 153Z" fill="#2F2A6B"/>
<path fill-rule="evenodd" clip-rule="evenodd" d="M256 132C240.536 132 228 144.536 228 160C228 175.464 240.536 188 256 188C271.464 188 284 175.464 284 160C284 144.536 271.464 132 256 132ZM230.5 160C230.5 168.12 234.295 175.354 240.209 180.023L257.373 162.859C260.205 160.027 264.795 160.027 267.627 162.859L277.877 173.109C280.177 169.278 281.5 164.794 281.5 160C281.5 145.917 270.083 134.5 256 134.5C241.917 134.5 230.5 145.917 230.5 160ZM256 185.5C250.946 185.5 246.236 184.03 242.274 181.494L259.141 164.627C260.996 162.772 264.004 162.772 265.859 164.627L276.458 175.225C271.809 181.462 264.376 185.5 256 185.5Z" fill="#2F2A6B"/>
</g>
</svg>
