<svg width="512" height="512" viewBox="0 0 512 512" fill="none" xmlns="http://www.w3.org/2000/svg">
<rect y="0.317612" width="512" height="512" fill="#F4F0FF"/>
<g opacity="0.2">
<path fill-rule="evenodd" clip-rule="evenodd" d="M255 249.318C255 252.631 252.314 255.318 249 255.318C245.686 255.318 243 252.631 243 249.318C243 246.004 245.686 243.318 249 243.318C252.314 243.318 255 246.004 255 249.318ZM252.5 249.318C252.5 251.251 250.933 252.818 249 252.818C247.067 252.818 245.5 251.251 245.5 249.318C245.5 247.385 247.067 245.818 249 245.818C250.933 245.818 252.5 247.385 252.5 249.318Z" fill="#222261"/>
<path fill-rule="evenodd" clip-rule="evenodd" d="M256 228.318C240.536 228.318 228 240.854 228 256.318C228 271.782 240.536 284.318 256 284.318C271.464 284.318 284 271.782 284 256.318C284 240.854 271.464 228.318 256 228.318ZM230.5 256.318C230.5 264.438 234.295 271.671 240.209 276.341L257.373 259.176C260.205 256.345 264.795 256.345 267.627 259.176L277.877 269.427C280.177 265.596 281.5 261.111 281.5 256.318C281.5 242.234 270.083 230.818 256 230.818C241.917 230.818 230.5 242.234 230.5 256.318ZM256 281.818C250.946 281.818 246.236 280.348 242.274 277.812L259.141 260.944C260.996 259.089 264.004 259.089 265.859 260.944L276.458 271.543C271.809 277.779 264.376 281.818 256 281.818Z" fill="#222261"/>
</g>
</svg>
