<svg width="64" height="64" viewBox="0 0 64 64" fill="none" xmlns="http://www.w3.org/2000/svg">
<rect y="0.213684" width="64" height="64" fill="#F4F0FF"/>
<g opacity="0.2">
<path fill-rule="evenodd" clip-rule="evenodd" d="M31.4286 28.2136C31.4286 30.1072 29.8935 31.6422 28 31.6422C26.1065 31.6422 24.5714 30.1072 24.5714 28.2136C24.5714 26.3201 26.1065 24.7851 28 24.7851C29.8935 24.7851 31.4286 26.3201 31.4286 28.2136ZM30 28.2136C30 29.3182 29.1046 30.2136 28 30.2136C26.8954 30.2136 26 29.3182 26 28.2136C26 27.1091 26.8954 26.2136 28 26.2136C29.1046 26.2136 30 27.1091 30 28.2136Z" fill="#222261"/>
<path fill-rule="evenodd" clip-rule="evenodd" d="M32 16.2136C23.1634 16.2136 16 23.3771 16 32.2136C16 41.0502 23.1634 48.2136 32 48.2136C40.8366 48.2136 48 41.0502 48 32.2136C48 23.3771 40.8366 16.2136 32 16.2136ZM17.4286 32.2136C17.4286 36.8536 19.5973 40.9871 22.9764 43.6556L32.7848 33.8472C34.4027 32.2293 37.0258 32.2293 38.6437 33.8472L44.5011 39.7045C45.8156 37.5156 46.5714 34.9529 46.5714 32.2136C46.5714 24.166 40.0476 17.6422 32 17.6422C23.9524 17.6422 17.4286 24.166 17.4286 32.2136ZM32 46.7851C29.1122 46.7851 26.4207 45.945 24.1564 44.496L33.795 34.8574C34.855 33.7974 36.5736 33.7974 37.6336 34.8574L43.6901 40.9139C41.0337 44.4773 36.7863 46.7851 32 46.7851Z" fill="#222261"/>
</g>
</svg>
