<svg width="24" height="24" viewBox="0 0 24 24" fill="none" xmlns="http://www.w3.org/2000/svg">
<g clip-path="url(#clip0)">
<path d="M20.25 3.20097C20.9674 3.61518 21.2132 4.53257 20.799 5.25001L19.0308 8.31267C19.0039 8.36888 18.9732 8.42405 18.9386 8.47784C18.9306 8.49038 18.9224 8.50275 18.914 8.51497L14.4432 16.2587C14.7937 16.7496 15 17.3507 15 18C15 19.6569 13.6569 21 12 21C10.3431 21 9 19.6569 9 18C9 16.4454 10.1825 15.167 11.697 15.0151L15.6017 8.2521C14.5689 7.80111 13.4565 7.54636 12.3218 7.50576C10.7068 7.44799 9.10608 7.8261 7.68767 8.6004C6.26925 9.3747 5.08548 10.5166 4.26065 11.9063C3.43582 13.2959 3.00036 14.882 3 16.498C2.99981 17.3264 2.32809 17.9978 1.49966 17.9976C0.671234 17.9975 -0.000186872 17.3257 3.90149e-08 16.4973C0.000486273 14.3426 0.581098 12.2279 1.68087 10.375C2.78064 8.52216 4.359 6.9996 6.25022 5.9672C8.14144 4.9348 10.2757 4.43065 12.429 4.50768C14.0549 4.56585 15.6464 4.95376 17.1087 5.64179L18.201 3.75001C18.6152 3.03257 19.5326 2.78675 20.25 3.20097Z" fill="#222261"/>
<path d="M22.289 10.3246C21.8627 9.61431 20.9413 9.38409 20.231 9.81041C19.5206 10.2367 19.2904 11.1582 19.7167 11.8685C20.5564 13.2675 21 14.8684 21 16.5C21 17.3284 21.6715 18 22.5 18C23.3284 18 24 17.3284 24 16.5C24 14.3245 23.4086 12.1899 22.289 10.3246Z" fill="#222261"/>
</g>
<defs>
<clipPath id="clip0">
<rect width="24" height="24" fill="white"/>
</clipPath>
</defs>
</svg>
