<svg width="24" height="24" viewBox="0 0 24 24" fill="none" xmlns="http://www.w3.org/2000/svg">
<path fill-rule="evenodd" clip-rule="evenodd" d="M4.22273 2.93091C6.3867 1.04144 9.14208 0 11.9913 0L11.9985 0.00743903C14.8477 0.00743903 17.6032 1.04888 19.7744 2.93835C21.9456 4.82782 23.3882 7.44629 23.8427 10.3326C24.3043 13.2188 23.7416 16.1721 22.2701 18.6715C20.7914 21.171 18.5049 23.053 15.7999 23.9754C15.194 24.1019 14.9776 23.7151 14.9776 23.3878C14.9776 23.2516 14.9792 23.0141 14.9813 22.6971C14.9856 22.0618 14.992 21.1073 14.992 20.0105C14.992 18.8649 14.6025 18.1136 14.1769 17.7342C16.8458 17.4292 19.6517 16.3878 19.6517 11.6641C19.6662 10.4442 19.2262 9.26138 18.4111 8.36127C18.5337 8.04884 18.9449 6.79911 18.2885 5.10306C18.2885 5.10306 17.2858 4.76831 14.992 6.36022C13.0228 5.80975 10.9527 5.80975 8.98344 6.36022C6.69685 4.77574 5.68695 5.10306 5.68695 5.10306C5.03776 6.79911 5.44898 8.04884 5.5716 8.36127C4.76372 9.26138 4.32365 10.4442 4.33808 11.6641C4.33808 16.3804 7.13687 17.4292 9.80576 17.7417C9.45952 18.0467 9.14931 18.5897 9.04111 19.3857C8.35586 19.7055 6.6175 20.2486 5.54994 18.3665C5.54994 18.3665 4.91514 17.1838 3.71053 17.0945C3.71053 17.0945 2.542 17.0796 3.6312 17.8384C3.6312 17.8384 4.42464 18.2103 4.96563 19.6386C4.96563 19.6386 5.66538 21.833 9.0051 21.0892C9.0051 21.748 9.01101 22.3731 9.01525 22.8209C9.01761 23.071 9.01945 23.2657 9.01945 23.3803C9.01945 23.7002 8.79592 24.0796 8.19722 23.968C5.49227 23.0456 3.19839 21.1635 1.7269 18.6641C0.255399 16.1646 -0.29997 13.204 0.154463 10.3251C0.616109 7.4463 2.05155 4.82038 4.22273 2.93091ZM4.33069 17.6966C4.40989 17.7411 4.50351 17.7189 4.53231 17.6595C4.56111 17.6001 4.50349 17.5184 4.42429 17.4738C4.34509 17.4293 4.25156 17.4516 4.22275 17.511C4.19395 17.5778 4.25148 17.652 4.33069 17.6966ZM5.02275 18.2171C4.97955 18.2394 4.93631 18.2468 4.89311 18.232C4.84991 18.2171 4.80668 18.1948 4.77788 18.1577C4.69868 18.0686 4.68433 17.9572 4.74194 17.8978C4.79954 17.8459 4.90751 17.8681 4.98672 17.9572C5.06592 18.0463 5.08035 18.1577 5.02275 18.2171ZM5.22504 18.8197C5.28984 18.9237 5.41953 18.9757 5.49153 18.9237C5.56353 18.8717 5.56353 18.7306 5.49153 18.6267C5.42673 18.5227 5.29704 18.4707 5.22504 18.5227C5.22025 18.5301 5.21467 18.5375 5.20908 18.545C5.19789 18.5598 5.18669 18.5747 5.18188 18.5896C5.16748 18.6193 5.16747 18.6415 5.16747 18.6712C5.16747 18.7009 5.17468 18.7306 5.18188 18.7529C5.18908 18.7752 5.20344 18.7975 5.22504 18.8197ZM6.13419 19.6088C6.06927 19.6832 5.93227 19.6609 5.82407 19.5642C5.71588 19.4675 5.68704 19.3261 5.75196 19.2518C5.81688 19.1774 5.95388 19.1997 6.06208 19.2964C6.17749 19.3931 6.1991 19.5344 6.12697 19.6088H6.13419ZM6.73277 20.1072C6.86982 20.1518 7.00681 20.1072 7.03567 20.0105C7.05731 19.9138 6.97082 19.8022 6.83376 19.7576C6.69671 19.713 6.55963 19.7576 6.53078 19.8543C6.50914 19.951 6.59572 20.07 6.73277 20.1072ZM8.01693 20.0775C8.01693 20.1742 7.90866 20.2635 7.7644 20.2635C7.62013 20.2635 7.50473 20.1816 7.50473 20.0849C7.50473 19.9882 7.61291 19.8989 7.75718 19.8989C7.90144 19.8989 8.01693 19.9733 8.01693 20.0775ZM8.70934 20.1519C8.8536 20.1221 8.94733 20.018 8.9329 19.9213C8.91126 19.8246 8.7815 19.7576 8.64445 19.7874C8.50739 19.8171 8.40637 19.9213 8.42079 20.018C8.44243 20.1147 8.56508 20.1742 8.70934 20.1519Z" fill="white"/>
</svg>
