<svg width="128" height="33" viewBox="0 0 128 33" fill="none" xmlns="http://www.w3.org/2000/svg">
<path d="M41.3312 12.9046C41.3312 10.5509 39.0984 8.05116 35.2344 8.05116C30.8955 8.05116 26.1289 11.3138 25.4005 17.8229C24.6562 24.397 28.6468 27.3187 32.6691 27.3187C36.6913 27.3187 38.7975 25.7118 40.9511 23.5691C39.0984 21.183 36.7072 22.2868 36.2479 22.5303C35.7412 22.79 35.0919 23.1471 33.7617 23.1471C32.2098 23.1471 30.6263 22.4329 30.6263 19.4624C40.5711 18.456 41.3312 15.2582 41.3312 12.9046V12.9046ZM36.4063 13.2941C36.3429 14.0246 36.0579 15.2745 31.0221 15.9725C32.0831 12.1092 34.1101 11.817 35.0444 11.817C35.9154 11.817 36.4696 12.515 36.4063 13.2941ZM19.5571 13.9272C19.5571 13.9272 17.4193 20.8096 17.2451 21.3778C17.1817 20.7934 15.614 8.44073 15.614 8.44073C11.9718 8.44073 10.024 11.1028 8.99468 13.911C8.99468 13.911 6.39762 20.8096 6.17593 21.394C6.16009 20.8583 5.78003 13.9921 5.78003 13.9921C5.55833 10.5509 2.48621 8.45696 0 8.45696L3.00878 27.1726C6.82519 27.1564 8.88383 24.5106 9.96066 21.7024C9.96066 21.7024 12.2568 15.6153 12.3519 15.3394C12.3677 15.5991 13.9988 27.1726 13.9988 27.1726C17.831 27.1726 19.8896 24.6891 20.9981 21.9784L26.3664 8.45696C22.5817 8.45696 20.5864 11.1028 19.5571 13.9272V13.9272ZM55.3933 8.01869C53.0338 8.01869 51.2285 9.3335 49.7083 11.2651V11.2489L51.0701 0C47.9347 0 45.3851 2.79193 44.8942 6.94737L42.5189 27.0266C44.3241 27.0266 46.2403 26.4909 47.2696 25.1274C48.1881 26.3448 49.5658 27.3187 51.6086 27.3187C56.8977 27.3187 60.5241 21.0207 60.5241 15.1121C60.4924 9.72307 57.9428 8.01869 55.3933 8.01869V8.01869ZM54.9024 17.6768C54.3481 20.972 52.5587 23.212 50.8326 23.212C49.0907 23.212 48.3464 22.4166 48.3464 22.4166C48.679 19.5273 48.8848 17.758 49.5183 16.2322C50.1517 14.7063 51.6561 12.2715 53.2238 12.2715C54.7599 12.2715 55.4566 14.3655 54.9024 17.6768V17.6768ZM73.731 8.45696H70.0413L70.0572 8.26217C70.3105 5.79488 70.8806 4.49631 72.7651 4.28529C74.0478 4.15544 74.6178 3.47368 74.7604 2.727C74.8712 2.14265 75.2196 0.113625 75.2196 0.113625C67.8085 0.0649287 65.4806 3.34383 64.8789 8.34333L64.8631 8.45696H64.7839C63.5804 8.45696 62.2502 9.85293 62.0285 11.6222L61.9493 12.2715H64.4196L62.3452 29.8347L61.7117 32.9838C61.7909 32.9838 61.8859 33 61.9651 33C65.4331 32.8701 67.6501 30.062 68.141 25.9877L69.7563 12.2715H70.9123C72.0525 12.2715 73.3827 11.1028 73.6202 9.15494L73.731 8.45696ZM92.9239 8.13232C88.6641 8.13232 84.6418 11.3463 83.4067 16.3945C82.1715 21.4427 84.0401 27.4161 90.311 27.4161C96.5661 27.4161 100.177 21.1992 100.177 16.0211C100.177 10.8756 96.772 8.13232 92.9239 8.13232V8.13232ZM94.65 17.5145C94.4283 19.8032 93.4465 23.2769 90.7544 23.2769C88.0465 23.2769 88.4266 19.2189 88.6958 17.2873C88.9808 15.2258 90.1052 12.2878 92.528 12.2878C94.6975 12.2878 94.9034 14.9336 94.65 17.5145ZM121.222 13.9272C121.222 13.9272 119.085 20.8096 118.91 21.3778C118.847 20.7934 117.279 8.44073 117.279 8.44073C113.637 8.44073 111.689 11.1028 110.66 13.911C110.66 13.911 108.063 20.8096 107.841 21.394C107.825 20.8583 107.445 13.9921 107.445 13.9921C107.224 10.5509 104.151 8.45696 101.665 8.45696L104.658 27.1726C108.475 27.1564 110.533 24.5106 111.61 21.7024C111.61 21.7024 113.906 15.6153 113.985 15.3394C114.017 15.5991 115.632 27.1726 115.632 27.1726C119.465 27.1726 121.523 24.6891 122.632 21.9784L128 8.45696C124.231 8.45696 122.236 11.1028 121.222 13.9272V13.9272ZM77.2149 0.113625L74.1111 25.7767L73.4777 28.942C73.5569 28.942 73.6519 28.9582 73.731 28.9582C77.0724 28.9095 79.4477 25.9065 79.8911 22.1244L81.6806 7.40187C82.219 2.90556 79.6061 0.113625 77.2149 0.113625V0.113625Z" fill="#222261"/>
</svg>
