<svg width="146" height="32" viewBox="0 0 146 32" fill="none" xmlns="http://www.w3.org/2000/svg">
<path d="M58.5825 18.2931L56.041 11.4422C55.9373 11.162 55.541 11.162 55.4371 11.4422L52.896 18.2935C52.878 18.3422 52.872 18.3945 52.8785 18.446C52.8851 18.4976 52.904 18.5467 52.9337 18.5894C52.9634 18.632 53.0029 18.6668 53.049 18.6908C53.095 18.7149 53.1462 18.7274 53.1981 18.7274H58.2804C58.3323 18.7274 58.3835 18.7148 58.4295 18.6908C58.4756 18.6667 58.5151 18.6319 58.5448 18.5892C58.5744 18.5466 58.5933 18.4974 58.5998 18.4458C58.6064 18.3943 58.6004 18.342 58.5823 18.2933L58.5825 18.2931ZM59.7565 22.1438H51.7222C51.6565 22.1438 51.5923 22.1639 51.5384 22.2015C51.4844 22.239 51.4432 22.2922 51.4203 22.3538L49.8386 26.6166C49.8157 26.6782 49.7745 26.7313 49.7206 26.7689C49.6666 26.8064 49.6025 26.8265 49.5367 26.8265H46.0544C46.0018 26.8265 45.9499 26.8136 45.9034 26.7889C45.8569 26.7642 45.8172 26.7285 45.7877 26.6849C45.7582 26.6413 45.7399 26.5911 45.7343 26.5388C45.7286 26.4865 45.736 26.4335 45.7555 26.3847L53.7729 6.41231C53.7969 6.35265 53.8382 6.30155 53.8915 6.26558C53.9448 6.22961 54.0076 6.21042 54.0719 6.21048H57.4063C57.5377 6.21048 57.656 6.29035 57.7052 6.41231L65.7223 26.3845C65.742 26.4333 65.7494 26.4863 65.7438 26.5387C65.7382 26.5911 65.7199 26.6413 65.6904 26.685C65.6609 26.7287 65.6211 26.7644 65.5746 26.7891C65.528 26.8139 65.4761 26.8268 65.4234 26.8268H61.9418C61.876 26.8267 61.8118 26.8066 61.7579 26.769C61.7039 26.7314 61.6627 26.6782 61.6399 26.6166L60.0579 22.3538C60.0351 22.2922 59.9939 22.239 59.9399 22.2015C59.886 22.1639 59.8218 22.1438 59.7561 22.1438H59.7565ZM67.3539 13.2198H70.3323C70.4177 13.2198 70.4996 13.2537 70.56 13.3141C70.6204 13.3745 70.6543 13.4564 70.6543 13.5418V26.5045C70.6543 26.5899 70.6204 26.6718 70.56 26.7322C70.4996 26.7926 70.4177 26.8265 70.3323 26.8265H67.3539C67.2685 26.8265 67.1865 26.7926 67.1261 26.7322C67.0657 26.6718 67.0318 26.5899 67.0318 26.5045V13.5416C67.0318 13.4562 67.0657 13.3743 67.1261 13.3139C67.1865 13.2535 67.2685 13.2196 67.3539 13.2196V13.2198ZM81.5167 16.3729C81.5167 16.4584 81.4828 16.5403 81.4224 16.6007C81.362 16.6611 81.2801 16.695 81.1947 16.695H81.1045C79.6318 16.695 78.5516 17.0484 77.8646 17.7552C77.1771 18.462 76.834 19.6305 76.834 21.2601V26.5045C76.834 26.5899 76.8001 26.6718 76.7397 26.7322C76.6793 26.7926 76.5973 26.8265 76.5119 26.8265H73.5627C73.4773 26.8265 73.3954 26.7926 73.335 26.7322C73.2746 26.6718 73.2407 26.5899 73.2407 26.5045V13.5416C73.2407 13.4562 73.2746 13.3743 73.335 13.3139C73.3954 13.2535 73.4773 13.2196 73.5627 13.2196H76.4823C76.5677 13.2196 76.6496 13.2535 76.71 13.3139C76.7704 13.3743 76.8044 13.4562 76.8044 13.5416V16.1056H76.8634C77.2168 15.0454 77.7763 14.231 78.5424 13.6612C79.3078 13.092 80.2504 12.8071 81.3694 12.8071H81.5167V16.3727V16.3729ZM89.6605 16.2531C89.5751 16.2531 89.4932 16.2871 89.4328 16.3475C89.3724 16.4079 89.3385 16.4898 89.3385 16.5752V21.9669C89.3385 22.5167 89.4458 22.9094 89.6622 23.145C89.878 23.3805 90.2512 23.4984 90.7813 23.4984H91.0778C91.1632 23.4984 91.2451 23.5323 91.3055 23.5927C91.3659 23.6531 91.3998 23.735 91.3998 23.8204V26.5337C91.3998 26.6191 91.3659 26.701 91.3055 26.7614C91.2451 26.8218 91.1632 26.8557 91.0778 26.8557H89.8093C88.4938 26.8557 87.4828 26.5171 86.7759 25.8398C86.0689 25.1624 85.7155 24.1565 85.7155 22.821V16.5752C85.7155 16.4898 85.6816 16.4079 85.6212 16.3475C85.5608 16.2871 85.4789 16.2531 85.3935 16.2531H83.5343C83.4489 16.2531 83.367 16.2192 83.3066 16.1588C83.2462 16.0984 83.2123 16.0165 83.2123 15.9311V13.5416C83.2123 13.4562 83.2462 13.3743 83.3066 13.3139C83.367 13.2535 83.4489 13.2196 83.5343 13.2196H85.3937C85.4791 13.2196 85.561 13.1856 85.6214 13.1252C85.6818 13.0648 85.7157 12.9829 85.7157 12.8975V8.09302C85.7157 8.00761 85.7497 7.92569 85.8101 7.86529C85.8705 7.8049 85.9524 7.77097 86.0378 7.77097H89.0162C89.1016 7.77097 89.1835 7.8049 89.2439 7.86529C89.3043 7.92569 89.3382 8.00761 89.3382 8.09302V12.8975C89.3382 12.9829 89.3722 13.0648 89.4326 13.1252C89.493 13.1856 89.5749 13.2196 89.6603 13.2196H91.814C91.8994 13.2196 91.9813 13.2535 92.0417 13.3139C92.1021 13.3743 92.1361 13.4562 92.1361 13.5416V15.9313C92.1361 16.0167 92.1021 16.0986 92.0417 16.159C91.9813 16.2194 91.8994 16.2533 91.814 16.2533H89.6605V16.2531ZM103.299 22.7916C103.976 22.0848 104.315 21.162 104.315 20.0229C104.315 18.8846 103.976 17.9613 103.299 17.2545C102.621 16.5477 101.733 16.1943 100.633 16.1943C99.5336 16.1943 98.6455 16.5477 97.9679 17.2545C97.2907 17.9613 96.9519 18.8846 96.9519 20.0229C96.9519 21.162 97.2907 22.0848 97.9679 22.7916C98.6455 23.4984 99.5336 23.8518 100.633 23.8518C101.733 23.8518 102.621 23.4984 103.299 22.7916ZM96.4218 26.4141C95.4204 25.8449 94.6299 25.0151 94.051 23.9254C93.4715 22.8358 93.1821 21.5351 93.1821 20.0229C93.1821 18.5114 93.4715 17.2103 94.051 16.1207C94.6299 15.031 95.4204 14.2018 96.4218 13.632C97.4232 13.0626 98.5225 12.7779 99.7203 12.7779C100.781 12.7779 101.689 12.984 102.445 13.3963C103.2 13.8085 103.804 14.388 104.256 15.1341H104.315V13.5416C104.315 13.4562 104.349 13.3743 104.409 13.3139C104.47 13.2535 104.551 13.2196 104.637 13.2196H107.586C107.671 13.2196 107.753 13.2535 107.814 13.3139C107.874 13.3743 107.908 13.4562 107.908 13.5416V26.5043C107.908 26.5897 107.874 26.6716 107.814 26.732C107.753 26.7924 107.671 26.8263 107.586 26.8263H104.637C104.551 26.8263 104.47 26.7924 104.409 26.732C104.349 26.6716 104.315 26.5897 104.315 26.5043V24.912H104.256C103.804 25.6585 103.2 26.2374 102.445 26.6496C101.689 27.0619 100.781 27.268 99.7203 27.268C98.5225 27.268 97.4232 26.9833 96.4218 26.4141V26.4141ZM120.173 22.7916C120.85 22.0848 121.189 21.162 121.189 20.0229C121.189 18.8846 120.85 17.9613 120.173 17.2545C119.495 16.5477 118.607 16.1943 117.507 16.1943C116.407 16.1943 115.519 16.5477 114.842 17.2545C114.165 17.9613 113.826 18.8846 113.826 20.0229C113.826 21.162 114.165 22.0848 114.842 22.7916C115.519 23.4984 116.407 23.8518 117.507 23.8518C118.607 23.8518 119.495 23.4984 120.173 22.7916ZM115.696 26.6496C114.94 26.2374 114.336 25.6585 113.885 24.912H113.826V26.5043C113.826 26.5897 113.792 26.6716 113.731 26.732C113.671 26.7924 113.589 26.8263 113.504 26.8263H110.525C110.44 26.8263 110.358 26.7924 110.297 26.732C110.237 26.6716 110.203 26.5897 110.203 26.5043V6.5319C110.203 6.44648 110.237 6.36457 110.297 6.30417C110.358 6.24377 110.44 6.20984 110.525 6.20984H113.504C113.589 6.20984 113.671 6.24377 113.731 6.30417C113.792 6.36457 113.826 6.44648 113.826 6.5319V15.1339H113.885C114.336 14.3878 114.94 13.8085 115.696 13.3963C116.452 12.9838 117.36 12.7777 118.42 12.7777C119.618 12.7777 120.717 13.0624 121.719 13.6318C122.72 14.2016 123.51 15.0308 124.09 16.1202C124.669 17.2105 124.959 18.5116 124.959 20.0232C124.959 21.5353 124.669 22.8358 124.09 23.9256C123.511 25.0153 122.72 25.8451 121.719 26.4141C120.718 26.9835 119.618 27.2684 118.421 27.2684C117.36 27.2684 116.452 27.0623 115.696 26.6498L115.696 26.6496ZM129.977 26.8265H126.999C126.913 26.8265 126.831 26.7926 126.771 26.7322C126.71 26.6718 126.676 26.5899 126.676 26.5045V6.53254C126.676 6.44713 126.71 6.36521 126.771 6.30481C126.831 6.24441 126.913 6.21048 126.999 6.21048H129.977C130.062 6.21048 130.144 6.24441 130.205 6.30481C130.265 6.36521 130.299 6.44713 130.299 6.53254V26.5045C130.299 26.5899 130.265 26.6718 130.205 26.7322C130.144 26.7926 130.062 26.8265 129.977 26.8265V26.8265ZM137.003 16.3712C136.509 16.7564 136.175 17.3125 136.003 18.0399C135.955 18.2405 136.112 18.4328 136.318 18.4328H141.986C142.183 18.4328 142.337 18.2568 142.306 18.0627C142.192 17.3745 141.897 16.826 141.42 16.4155C140.861 15.9345 140.129 15.694 139.226 15.694C138.323 15.694 137.581 15.9197 137.003 16.3712V16.3712ZM144.262 14.6776C145.421 15.9444 146 17.7361 146 20.0526V20.4373C146 20.5227 145.966 20.6047 145.906 20.6651C145.845 20.7255 145.763 20.7594 145.678 20.7594H136.209C136.161 20.7595 136.115 20.7699 136.072 20.7898C136.029 20.8098 135.991 20.8388 135.961 20.8749C135.931 20.911 135.909 20.9533 135.896 20.9989C135.884 21.0444 135.882 21.0921 135.89 21.1386C136.041 21.9991 136.422 22.6827 137.032 23.1892C137.729 23.7689 138.608 24.0581 139.668 24.0581C141.037 24.0581 142.304 23.5239 143.469 22.4553C143.611 22.3248 143.837 22.3525 143.947 22.5112L145.395 24.5895C145.44 24.6542 145.46 24.7332 145.451 24.8117C145.442 24.8902 145.405 24.9625 145.346 25.0151C144.635 25.6372 143.845 26.1622 142.996 26.5762C142.053 27.0374 140.944 27.2684 139.668 27.2684C138.195 27.2684 136.909 26.9687 135.81 26.3701C134.71 25.7715 133.856 24.9273 133.248 23.8372C132.639 22.7476 132.334 21.4862 132.334 20.0526C132.334 18.6196 132.629 17.3533 133.218 16.2533C133.807 15.1541 134.632 14.3 135.692 13.6911C136.752 13.0828 137.989 12.7781 139.403 12.7781C141.483 12.7781 143.104 13.4115 144.262 14.6776V14.6776ZM71.0434 8.42754C71.0434 9.64234 70.0585 10.6272 68.8435 10.6272C67.6283 10.6272 66.6434 9.64234 66.6434 8.42732C66.6434 7.2123 67.6285 6.22744 68.8435 6.22744C70.0585 6.22744 71.0434 7.2123 71.0434 8.42732" fill="#222261"/>
<path d="M16.9617 0.401186L2.79973 6.26115C2.01219 6.58708 2.02035 7.70591 2.81283 8.02002L17.0339 13.6595C18.2834 14.155 19.6749 14.155 20.9243 13.6595L35.1456 8.01981C35.9379 7.70591 35.9465 6.58729 35.1585 6.26137L20.9969 0.400971C19.7049 -0.133657 18.2535 -0.133657 16.9615 0.400971" fill="#222261"/>
<path d="M20.241 16.7388V30.8272C20.241 31.4971 20.9166 31.9561 21.5395 31.7092L37.3861 25.5583C37.5628 25.4883 37.7144 25.3667 37.8212 25.2094C37.9281 25.0522 37.9852 24.8664 37.9851 24.6763V10.5882C37.9851 9.91806 37.3094 9.45924 36.6866 9.70615L20.84 15.857C20.6633 15.9271 20.5117 16.0487 20.4049 16.206C20.2981 16.3632 20.241 16.5489 20.241 16.7391" fill="#222261"/>
<path d="M16.5405 17.4659L11.8376 19.7366L11.3601 19.9674L1.43252 24.7242C0.803429 25.0278 0 24.5692 0 23.8701V10.6472C0 10.3943 0.129682 10.1759 0.303594 10.0117C0.374941 9.94065 0.455883 9.87994 0.544065 9.83134C0.7811 9.68899 1.11948 9.65099 1.40718 9.76479L16.4615 15.7297C17.2267 16.0333 17.2868 17.1056 16.5405 17.4661" fill="#222261"/>
<path d="M16.5405 17.4659L11.8376 19.7366L0.303589 10.0115C0.37495 9.94051 0.455891 9.87988 0.544059 9.83134C0.781095 9.68899 1.11947 9.65099 1.40718 9.76479L16.4615 15.7297C17.2267 16.0333 17.2868 17.1056 16.5405 17.4661" fill="#222261"/>
</svg>
