<svg width="24" height="24" viewBox="0 0 24 24" fill="none" xmlns="http://www.w3.org/2000/svg">
<path fill-rule="evenodd" clip-rule="evenodd" d="M19.9393 1.93934C20.5251 1.35355 21.4749 1.35355 22.0607 1.93934C22.6464 2.52513 22.6464 3.47487 22.0607 4.06066L4.06066 22.0607C3.47487 22.6464 2.52513 22.6464 1.93934 22.0607C1.35355 21.4749 1.35355 20.5251 1.93934 19.9393L3.97085 17.9078C1.10122 15.3037 0 12 0 12C0 12 3 3 12 3C14.1875 3 16.0205 3.53167 17.5421 4.33655L19.9393 1.93934ZM15.2823 6.59634C14.33 6.22378 13.2426 6 12 6C8.64329 6 6.41931 7.63298 4.92966 9.42055C4.17559 10.3254 3.63906 11.2426 3.29266 11.9354L3.26058 12L3.29266 12.0646C3.63906 12.7574 4.17559 13.6746 4.92966 14.5794C5.27647 14.9956 5.66308 15.4034 6.09452 15.7842L7.93856 13.9401C7.65743 13.3527 7.5 12.6947 7.5 12C7.5 9.51472 9.51472 7.5 12 7.5C12.6947 7.5 13.3527 7.65743 13.9401 7.93856L15.2823 6.59634Z" fill="#222261"/>
<path d="M22.0278 8.34161L19.8724 10.4969C20.2231 11.0231 20.4995 11.5196 20.7073 11.9354L20.7394 12L20.7073 12.0646C20.3609 12.7574 19.8244 13.6746 19.0703 14.5794C17.6371 16.2994 15.524 17.8762 12.3763 17.9931L9.59716 20.7722C10.3458 20.9189 11.1459 21 12 21C21 21 24 12 24 12C24 12 23.4262 10.2787 22.0278 8.34161Z" fill="#222261"/>
</svg>
