<?xml version="1.0" encoding="UTF-8"?>
<svg width="100px" height="87px" viewBox="0 0 100 87" version="1.1" xmlns="http://www.w3.org/2000/svg" xmlns:xlink="http://www.w3.org/1999/xlink">
    <!-- Generator: Sketch 55.2 (78181) - https://sketchapp.com -->
    <title>finsweet-fs-icon-electricpurple copy 3</title>
    <desc>Created with Sketch.</desc>
    <g id="finsweet-fs-icon-electricpurple-copy-3" stroke="none" stroke-width="1" fill="none" fill-rule="evenodd">
        <g id="finsweet-fs-icon-electricpurple-copy" fill="#000000" fill-rule="nonzero">
            <path d="M86.9312,63.4796697 C86.8424128,62.1678736 86.0895307,60.9917205 84.934,60.3596422 C82.8061035,59.1169176 80.4606781,58.2894097 78.0228,57.9212477 C73.8167799,57.1966464 69.8076855,55.6075318 66.25,53.2547752 C63.579833,51.0905889 62.0896829,47.7962883 62.2296,44.3668073 C62.3062588,40.4225038 64.088327,36.7038625 67.1172,34.1678532 C70.904479,31.2449888 75.6383985,29.8168319 80.4144,30.1562752 C85.4022109,29.8855201 90.336066,31.2986676 94.4204,34.1678532 C97.8515327,36.508914 99.7344431,40.5269535 99.3348,44.654945 L99.3348,44.8644633 L86.0368,44.8644633 C86.1460711,43.414801 85.67354,41.9812222 84.7232,40.8792248 C83.5214092,39.8764147 81.9762996,39.3783461 80.4136,39.4900183 C79.0289621,39.4483501 77.6788667,39.9254448 76.6292,40.827344 C75.6380958,41.5374916 75.0822908,42.7059391 75.1576,43.9210321 C75.205577,45.1900969 75.8731445,46.3553626 76.9448,47.0406606 C79.0844532,48.2177814 81.4305908,48.9744156 83.856,49.2695367 C88.160105,49.9035287 92.2652177,51.4988085 95.8652,53.9364083 C98.5869873,56.153214 100.08142,59.5354565 99.8856,63.0354908 C99.8988792,67.0277141 97.9310239,70.7677617 94.63,73.0241284 C90.4736967,75.9088663 85.4686115,77.3213397 80.4136,77.0361055 C75.1773973,77.2989332 70.0261163,75.6386869 65.9336,72.3692339 C62.6664387,69.8948386 60.83677,65.9688558 61.046,61.8817431 L61.046,61.6726239 L73.7384,61.6726239 C73.4821137,63.4113548 74.2615908,65.1402455 75.7356,66.1024404 C77.3316908,67.0488137 79.1365505,67.5890708 80.9912,67.6756239 C82.4874344,67.7750083 83.9746914,67.3786894 85.222,66.5482156 C86.3640282,65.9671774 87.0397287,64.7540847 86.9312,63.4796697 Z M32.3484,76.3524771 L32.3484,40.826945 L25.8316,40.826945 L25.8316,31.049422 L32.2696,31.049422 L32.2696,26.3829495 C32.0700416,21.940329 33.7035801,17.6101307 36.7896,14.4012936 C39.9326472,11.9387527 43.8613744,10.6916089 47.8528,10.889367 L56.7612,10.889367 L56.7612,22.1630505 L51.5056,22.1630505 C50.0377404,21.9598427 48.5592756,22.4548005 47.5113587,23.5002356 C46.4634417,24.5456707 45.9672351,26.0207074 46.1708,27.4852156 L46.1708,30.8411009 L54.8428,30.8411009 L54.8428,40.5938807 L46.1708,40.5938807 L46.1708,75.9098945 L32.2696,75.9098945 L32.2696,76.4338899 L32.3484,76.3524771 Z M5.5708,15.0533945 C5.5708,1.49855505 12.6908,0.397486239 24.7016,0.397486239 L24.7016,11.068156 C19.1568,11.068156 16.818,11.933367 16.818,15.2892523 L16.818,32.8285321 C16.818,36.8137706 17.0284,41.034867 13.6908,43.7095183 C17.0284,46.3310917 16.818,50.3690092 16.818,54.5901055 L16.818,72.1297844 C16.818,75.6955872 19.0516,76.3508807 24.7016,76.3508807 L24.7016,86.9169908 C12.6924,86.9169908 5.5708,85.7895826 5.5708,72.2610826 L5.5708,54.5901055 C5.5708,51.7059358 5.5708,48.5863073 -4.54747351e-13,48.5863073 L-4.54747351e-13,39.2525642 C5.5708,39.2525642 5.5708,35.9222202 5.5708,33.2747064 L5.5708,15.0533945 Z" id="Shape"></path>
        </g>
    </g>
</svg>