<svg width="118" height="40" viewBox="0 0 118 40" fill="none" xmlns="http://www.w3.org/2000/svg">
<path d="M50.4969 21.4038C50.4969 26.9922 46.1251 31.1102 40.7599 31.1102C35.3947 31.1102 31.0228 26.9922 31.0228 21.4038C31.0228 15.776 35.3947 11.6973 40.7599 11.6973C46.1251 11.6973 50.4969 15.776 50.4969 21.4038ZM46.2345 21.4038C46.2345 17.9116 43.7007 15.5222 40.7599 15.5222C37.8191 15.5222 35.2853 17.9116 35.2853 21.4038C35.2853 24.861 37.8191 27.2854 40.7599 27.2854C43.7007 27.2854 46.2345 24.8566 46.2345 21.4038Z" fill="#222261"/>
<path d="M71.5029 21.4038C71.5029 26.9922 67.1311 31.1102 61.7659 31.1102C56.4006 31.1102 52.0288 26.9922 52.0288 21.4038C52.0288 15.7803 56.4006 11.6973 61.7659 11.6973C67.1311 11.6973 71.5029 15.776 71.5029 21.4038ZM67.2405 21.4038C67.2405 17.9116 64.7067 15.5222 61.7659 15.5222C58.8251 15.5222 56.2912 17.9116 56.2912 21.4038C56.2912 24.861 58.8251 27.2854 61.7659 27.2854C64.7067 27.2854 67.2405 24.8566 67.2405 21.4038Z" fill="#222261"/>
<path d="M91.6334 12.2838V29.7098C91.6334 36.878 87.406 39.8057 82.4083 39.8057C77.7039 39.8057 74.8725 36.6592 73.8047 34.086L77.5157 32.5412C78.1766 34.121 79.7958 35.9853 82.404 35.9853C85.603 35.9853 87.5854 34.0116 87.5854 30.2962V28.9002H87.4366C86.4826 30.0774 84.6446 31.1058 82.3252 31.1058C77.472 31.1058 73.0258 26.8784 73.0258 21.4388C73.0258 15.9598 77.472 11.6973 82.3252 11.6973C84.6402 11.6973 86.4782 12.7258 87.4366 13.8679H87.5854V12.2881H91.6334V12.2838ZM87.8874 21.4388C87.8874 18.021 85.6074 15.5222 82.7059 15.5222C79.7651 15.5222 77.3013 18.021 77.3013 21.4388C77.3013 24.8216 79.7651 27.2854 82.7059 27.2854C85.6074 27.2854 87.8874 24.8216 87.8874 21.4388Z" fill="#222261"/>
<path d="M98.3071 2.06983V30.5152H94.1497V2.06983H98.3071Z" fill="#222261"/>
<path d="M114.508 24.5982L117.816 26.8038C116.748 28.3837 114.175 31.1057 109.729 31.1057C104.215 31.1057 100.097 26.8432 100.097 21.3992C100.097 15.627 104.25 11.6928 109.252 11.6928C114.289 11.6928 116.753 15.7014 117.558 17.8676L118 18.9704L105.025 24.3444C106.018 26.2918 107.563 27.2852 109.729 27.2852C111.9 27.2852 113.405 26.2174 114.508 24.5982ZM104.324 21.106L112.998 17.5044C112.521 16.2922 111.086 15.4476 109.396 15.4476C107.23 15.4476 104.215 17.36 104.324 21.106V21.106Z" fill="#222261"/>
<path d="M15.2861 18.8786V14.7606H29.163C29.2987 15.4783 29.3687 16.3273 29.3687 17.2463C29.3687 20.3359 28.5241 24.1563 25.8021 26.8783C23.1545 29.6353 19.7717 31.1057 15.2905 31.1057C6.98442 31.1057 0 24.3401 0 16.0341C0 7.72802 6.98442 0.962402 15.2905 0.962402C19.8855 0.962402 23.1589 2.7654 25.6183 5.11542L22.7125 8.02122C20.9489 6.36702 18.5595 5.08041 15.2861 5.08041C9.22067 5.08041 4.47686 9.96863 4.47686 16.0341C4.47686 22.0995 9.22067 26.9877 15.2861 26.9877C19.2203 26.9877 21.4609 25.4079 22.8963 23.9725C24.0604 22.8084 24.8262 21.1455 25.1282 18.8742L15.2861 18.8786V18.8786Z" fill="#222261"/>
</svg>
