<svg width="24" height="24" viewBox="0 0 24 24" fill="none" xmlns="http://www.w3.org/2000/svg">
<path d="M10.0607 4.06066C10.6464 3.47487 10.6464 2.52513 10.0607 1.93934C9.47487 1.35355 8.52513 1.35355 7.93934 1.93934L6 3.87868L4.06066 1.93934C3.47487 1.35355 2.52513 1.35355 1.93934 1.93934C1.35355 2.52513 1.35355 3.47487 1.93934 4.06066L3.87868 6L1.93934 7.93934C1.35355 8.52513 1.35355 9.47487 1.93934 10.0607C2.52513 10.6464 3.47487 10.6464 4.06066 10.0607L6 8.12132L7.93934 10.0607C8.52513 10.6464 9.47487 10.6464 10.0607 10.0607C10.6464 9.47487 10.6464 8.52513 10.0607 7.93934L8.12132 6L10.0607 4.06066Z" fill="#222261"/>
<path d="M18 16.9013V12C18 9.51472 15.9853 7.5 13.5 7.5C12.6716 7.5 12 6.82843 12 6C12 5.17157 12.6716 4.5 13.5 4.5C17.6421 4.5 21 7.85786 21 12V16.9013C21.8967 17.4201 22.5 18.3896 22.5 19.5C22.5 21.1569 21.1569 22.5 19.5 22.5C17.8431 22.5 16.5 21.1569 16.5 19.5C16.5 18.3896 17.1033 17.4201 18 16.9013Z" fill="#222261"/>
<path d="M9 19.5C9 21.1569 7.65685 22.5 6 22.5C4.34315 22.5 3 21.1569 3 19.5C3 18.3896 3.6033 17.4201 4.5 16.9013L4.5 13.5C4.5 12.6716 5.17157 12 6 12C6.82843 12 7.5 12.6716 7.5 13.5V16.9013C8.3967 17.4201 9 18.3896 9 19.5Z" fill="#222261"/>
</svg>
