<svg width="124" height="44" viewBox="0 0 124 44" fill="none" xmlns="http://www.w3.org/2000/svg">
<path d="M2.58929 2.326L26.4021 0.568478C29.3263 0.317109 30.0787 0.485489 31.9167 1.82361L39.518 7.17814C40.7722 8.09891 41.1903 8.3496 41.1903 9.35335V38.721C41.1903 40.5616 40.5213 41.65 38.1824 41.8166L10.5287 43.4902C8.77299 43.5742 7.93738 43.3234 7.0179 42.1513L1.42016 34.8723C0.417107 33.5324 0 32.53 0 31.3572V5.25327C0 3.74814 0.669154 2.49267 2.58929 2.326Z" fill="white"/>
<path fill-rule="evenodd" clip-rule="evenodd" d="M26.4021 0.568478L2.58929 2.326C0.669154 2.49267 0 3.74814 0 5.25327V31.3572C0 32.53 0.417107 33.5324 1.42016 34.8723L7.0179 42.1513C7.93738 43.3234 8.77299 43.5742 10.5287 43.4902L38.1824 41.8166C40.5213 41.65 41.1903 40.5616 41.1903 38.721V9.35335C41.1903 8.40194 40.8147 8.1271 39.7075 7.31692C39.6465 7.27235 39.5834 7.22615 39.518 7.17814L31.9167 1.82361C30.0787 0.485489 29.3263 0.317109 26.4021 0.568478ZM11.1549 8.87185C8.89729 9.02465 8.3843 9.05937 7.10224 8.01544L3.84196 5.42183C3.50944 5.08644 3.67622 4.66808 4.51106 4.5851L27.403 2.91159C29.324 2.74389 30.3263 3.41433 31.0786 3.99972L35.0049 6.84467C35.1721 6.92799 35.5891 7.42937 35.0877 7.42937L11.4463 8.85221L11.1549 8.87185ZM8.52066 38.4697V13.5376C8.52066 12.4502 8.85486 11.9478 9.85682 11.8634L37.0081 10.2743C37.929 10.1906 38.346 10.7767 38.346 11.8634V36.6282C38.346 37.7166 38.1785 38.6383 36.6741 38.7212L10.6923 40.228C9.18872 40.3109 8.52066 39.8097 8.52066 38.4697ZM34.1706 14.8749C34.3371 15.6287 34.1706 16.3818 33.4172 16.4665L32.1653 16.7165V35.123C31.0784 35.7085 30.0761 36.0432 29.2409 36.0432C27.9037 36.0432 27.5688 35.6246 26.5672 34.3703L18.3787 21.4856V33.9519L20.9698 34.538C20.9698 34.538 20.9698 36.0432 18.8793 36.0432L13.1161 36.3783C12.9487 36.0432 13.1161 35.2073 13.7007 35.0397L15.2046 34.622V18.1393L13.1165 17.9716C12.9491 17.2179 13.3661 16.1311 14.5366 16.0468L20.7191 15.629L29.2409 28.6814V17.1349L27.0682 16.8849C26.9014 15.9634 27.5688 15.2943 28.4043 15.2114L34.1706 14.8749Z" fill="#222261"/>
<path d="M59.4364 30.955V19.607H59.6329L67.8145 30.955H70.3915V14.2797H67.5256V25.6162H67.3292L59.1475 14.2797H56.559V30.955H59.4364Z" fill="#222261"/>
<path d="M78.4877 31.2093C82.2665 31.2093 84.5662 28.7363 84.5662 24.6339C84.5662 20.5431 82.255 18.0585 78.4877 18.0585C74.732 18.0585 72.4092 20.5546 72.4092 24.6339C72.4092 28.7363 74.6973 31.2093 78.4877 31.2093ZM78.4877 28.8056C76.4885 28.8056 75.3445 27.2802 75.3445 24.6339C75.3445 21.9991 76.4885 20.4622 78.4877 20.4622C80.4753 20.4622 81.6194 21.9991 81.6194 24.6339C81.6194 27.2802 80.4869 28.8056 78.4877 28.8056Z" fill="#222261"/>
<path d="M87.1848 15.2157V18.3936H85.1856V20.6817H87.1848V27.5807C87.1848 30.0306 88.3404 31.0128 91.2409 31.0128C91.7956 31.0128 92.3272 30.955 92.7432 30.8742V28.6323C92.3965 28.667 92.177 28.6901 91.7725 28.6901C90.5707 28.6901 90.0391 28.1354 90.0391 26.8873V20.6817H92.7432V18.3936H90.0391V15.2157H87.1848Z" fill="#222261"/>
<path d="M94.4604 30.955H97.3148V18.3127H94.4604V30.955ZM95.8818 16.2211C96.8294 16.2211 97.5921 15.4584 97.5921 14.4993C97.5921 13.5401 96.8294 12.7659 95.8818 12.7659C94.9458 12.7659 94.1715 13.5401 94.1715 14.4993C94.1715 15.4584 94.9458 16.2211 95.8818 16.2211Z" fill="#222261"/>
<path d="M105.145 31.2093C108.924 31.2093 111.224 28.7363 111.224 24.6339C111.224 20.5431 108.912 18.0585 105.145 18.0585C101.389 18.0585 99.0667 20.5546 99.0667 24.6339C99.0667 28.7363 101.355 31.2093 105.145 31.2093ZM105.145 28.8056C103.146 28.8056 102.002 27.2802 102.002 24.6339C102.002 21.9991 103.146 20.4622 105.145 20.4622C107.133 20.4622 108.277 21.9991 108.277 24.6339C108.277 27.2802 107.144 28.8056 105.145 28.8056Z" fill="#222261"/>
<path d="M112.929 30.955H115.795V23.5939C115.795 21.7333 116.87 20.5546 118.58 20.5546C120.325 20.5546 121.134 21.5253 121.134 23.4552V30.955H124V22.7734C124 19.7573 122.463 18.0585 119.643 18.0585C117.76 18.0585 116.489 18.9252 115.888 20.3351H115.691V18.3127H112.929V30.955Z" fill="#222261"/>
</svg>
