<svg width="512" height="320" viewBox="0 0 512 320" fill="none" xmlns="http://www.w3.org/2000/svg">
<rect y="0.265686" width="512" height="320" fill="#F4F0FF"/>
<g opacity="0.2">
<path fill-rule="evenodd" clip-rule="evenodd" d="M255 153.266C255 156.579 252.314 159.266 249 159.266C245.686 159.266 243 156.579 243 153.266C243 149.952 245.686 147.266 249 147.266C252.314 147.266 255 149.952 255 153.266ZM252.5 153.266C252.5 155.199 250.933 156.766 249 156.766C247.067 156.766 245.5 155.199 245.5 153.266C245.5 151.333 247.067 149.766 249 149.766C250.933 149.766 252.5 151.333 252.5 153.266Z" fill="#222261"/>
<path fill-rule="evenodd" clip-rule="evenodd" d="M256 132.266C240.536 132.266 228 144.802 228 160.266C228 175.73 240.536 188.266 256 188.266C271.464 188.266 284 175.73 284 160.266C284 144.802 271.464 132.266 256 132.266ZM230.5 160.266C230.5 168.386 234.295 175.619 240.209 180.289L257.373 163.124C260.205 160.293 264.795 160.293 267.627 163.124L277.877 173.375C280.177 169.544 281.5 165.059 281.5 160.266C281.5 146.182 270.083 134.766 256 134.766C241.917 134.766 230.5 146.182 230.5 160.266ZM256 185.766C250.946 185.766 246.236 184.296 242.274 181.76L259.141 164.892C260.996 163.037 264.004 163.037 265.859 164.892L276.458 175.491C271.809 181.727 264.376 185.766 256 185.766Z" fill="#222261"/>
</g>
</svg>
