<svg width="64" height="64" viewBox="0 0 64 64" fill="none" xmlns="http://www.w3.org/2000/svg">
<rect width="64" height="64" fill="#F4F0FF"/>
<g opacity="0.2">
<path fill-rule="evenodd" clip-rule="evenodd" d="M31.4286 28C31.4286 29.8935 29.8935 31.4286 28 31.4286C26.1065 31.4286 24.5714 29.8935 24.5714 28C24.5714 26.1065 26.1065 24.5714 28 24.5714C29.8935 24.5714 31.4286 26.1065 31.4286 28ZM30 28C30 29.1046 29.1046 30 28 30C26.8954 30 26 29.1046 26 28C26 26.8954 26.8954 26 28 26C29.1046 26 30 26.8954 30 28Z" fill="#2F2A6B"/>
<path fill-rule="evenodd" clip-rule="evenodd" d="M32 16C23.1634 16 16 23.1634 16 32C16 40.8366 23.1634 48 32 48C40.8366 48 48 40.8366 48 32C48 23.1634 40.8366 16 32 16ZM17.4286 32C17.4286 36.64 19.5973 40.7735 22.9764 43.442L32.7848 33.6336C34.4027 32.0157 37.0258 32.0157 38.6437 33.6336L44.5011 39.4909C45.8156 37.3019 46.5714 34.7392 46.5714 32C46.5714 23.9524 40.0476 17.4286 32 17.4286C23.9524 17.4286 17.4286 23.9524 17.4286 32ZM32 46.5714C29.1122 46.5714 26.4207 45.7314 24.1564 44.2824L33.795 34.6437C34.855 33.5837 36.5736 33.5837 37.6336 34.6437L43.6901 40.7002C41.0337 44.2637 36.7863 46.5714 32 46.5714Z" fill="#2F2A6B"/>
</g>
</svg>
