<svg width="512" height="512" viewBox="0 0 512 512" fill="none" xmlns="http://www.w3.org/2000/svg">
<rect width="512" height="512" fill="#F4F0FF"/>
<g opacity="0.2">
<path fill-rule="evenodd" clip-rule="evenodd" d="M255 249C255 252.314 252.314 255 249 255C245.686 255 243 252.314 243 249C243 245.686 245.686 243 249 243C252.314 243 255 245.686 255 249ZM252.5 249C252.5 250.933 250.933 252.5 249 252.5C247.067 252.5 245.5 250.933 245.5 249C245.5 247.067 247.067 245.5 249 245.5C250.933 245.5 252.5 247.067 252.5 249Z" fill="#2F2A6B"/>
<path fill-rule="evenodd" clip-rule="evenodd" d="M256 228C240.536 228 228 240.536 228 256C228 271.464 240.536 284 256 284C271.464 284 284 271.464 284 256C284 240.536 271.464 228 256 228ZM230.5 256C230.5 264.12 234.295 271.354 240.209 276.023L257.373 258.859C260.205 256.027 264.795 256.027 267.627 258.859L277.877 269.109C280.177 265.278 281.5 260.794 281.5 256C281.5 241.917 270.083 230.5 256 230.5C241.917 230.5 230.5 241.917 230.5 256ZM256 281.5C250.946 281.5 246.236 280.03 242.274 277.494L259.141 260.627C260.996 258.772 264.004 258.772 265.859 260.627L276.458 271.225C271.809 277.462 264.376 281.5 256 281.5Z" fill="#2F2A6B"/>
</g>
</svg>
