<svg width="24" height="24" viewBox="0 0 24 24" fill="none" xmlns="http://www.w3.org/2000/svg">
<path fill-rule="evenodd" clip-rule="evenodd" d="M16.7519 1.41793C17.2115 0.728633 18.1428 0.542372 18.8321 1.0019C19.5214 1.46143 19.7076 2.39273 19.2481 3.08203L14.0656 10.8558L16.966 14.8717C17.0168 14.942 17.0606 15.0152 17.0975 15.0905C17.3891 15.0311 17.6909 15 18 15C20.4853 15 22.5 17.0147 22.5 19.5C22.5 21.9853 20.4853 24 18 24C15.5147 24 13.5 21.9853 13.5 19.5C13.5 18.4087 13.8884 17.4082 14.5346 16.6291L12.2893 13.5202L11.7481 14.332C11.2886 15.0213 10.3573 15.2076 9.66797 14.7481C8.97868 14.2885 8.79242 13.3572 9.25195 12.6679L10.4144 10.9242L4.784 3.12821C4.29896 2.45663 4.45019 1.519 5.12178 1.03396C5.79337 0.548923 6.731 0.700154 7.21604 1.37174L12.1907 8.25977L16.7519 1.41793ZM16.5 19.5C16.5 18.6715 17.1716 18 18 18C18.8284 18 19.5 18.6715 19.5 19.5C19.5 20.3284 18.8284 21 18 21C17.1716 21 16.5 20.3284 16.5 19.5Z" fill="#222261"/>
<path fill-rule="evenodd" clip-rule="evenodd" d="M6 15C3.51472 15 1.5 17.0147 1.5 19.5C1.5 21.9853 3.51472 24 6 24C8.48528 24 10.5 21.9853 10.5 19.5C10.5 17.0147 8.48528 15 6 15ZM4.5 19.5C4.5 18.6715 5.17157 18 6 18C6.82843 18 7.5 18.6715 7.5 19.5C7.5 20.3284 6.82843 21 6 21C5.17157 21 4.5 20.3284 4.5 19.5Z" fill="#222261"/>
</svg>
