<svg width="83" height="35" viewBox="0 0 83 35" fill="none" xmlns="http://www.w3.org/2000/svg">
<path fill-rule="evenodd" clip-rule="evenodd" d="M82.759 17.79C82.759 11.905 79.909 7.26 74.459 7.26C68.989 7.26 65.677 11.904 65.677 17.743C65.677 24.663 69.585 28.157 75.194 28.157C77.93 28.157 79.999 27.537 81.562 26.663V22.065C79.999 22.847 78.206 23.329 75.93 23.329C73.7 23.329 71.723 22.547 71.47 19.835H82.71C82.71 19.535 82.756 18.341 82.756 17.789L82.759 17.79ZM71.412 15.607C71.412 13.009 72.998 11.929 74.447 11.929C75.849 11.929 77.344 13.009 77.344 15.607H71.412ZM56.815 7.262C54.562 7.262 53.115 8.319 52.309 9.055L52.009 7.63H46.942V34.435L52.689 33.217L52.712 26.711C53.54 27.309 54.758 28.159 56.782 28.159C60.897 28.159 64.644 24.859 64.644 17.561C64.621 10.894 60.828 7.261 56.804 7.261L56.815 7.262ZM55.435 23.102C54.079 23.102 53.275 22.619 52.722 22.022L52.699 13.492C53.297 12.825 54.124 12.366 55.435 12.366C57.527 12.366 58.975 14.711 58.975 17.722C58.975 20.802 57.55 23.102 55.435 23.102ZM39.035 5.906L44.805 4.666V0L39.035 1.218V5.906ZM39.035 7.653H44.805V27.768H39.035V7.653ZM32.85 9.353L32.482 7.653H27.516V27.77H33.263V14.136C34.619 12.366 36.918 12.688 37.631 12.941V7.654C36.895 7.378 34.206 6.872 32.849 9.354L32.85 9.353ZM21.356 2.653L15.747 3.85L15.724 22.264C15.724 25.666 18.276 28.172 21.678 28.172C23.563 28.172 24.942 27.827 25.701 27.412V22.745C24.965 23.045 21.333 24.101 21.333 20.699V12.55H25.701V7.653H21.331L21.356 2.653ZM5.816 13.481C5.816 12.584 6.552 12.241 7.77 12.241C9.75815 12.2833 11.7093 12.7865 13.47 13.711V8.32C11.562 7.56 9.677 7.263 7.77 7.263C3.103 7.263 0 9.7 0 13.769C0 20.114 8.736 19.102 8.736 21.839C8.736 22.896 7.816 23.241 6.529 23.241C4.621 23.241 2.184 22.459 0.253 21.401V26.871C2.391 27.791 4.553 28.171 6.529 28.171C11.311 28.171 14.599 25.803 14.599 21.688C14.576 14.838 5.817 16.056 5.817 13.481H5.816Z" fill="#222261"/>
</svg>
