<svg width="103" height="48" viewBox="0 0 103 48" fill="none" xmlns="http://www.w3.org/2000/svg">
<path d="M0 36.9846L10.65 20.4846H1.255C1.16791 19.9674 1.13306 19.4427 1.151 18.9186C1.134 18.3946 1.169 17.8686 1.255 17.3526H16.395L16.595 17.8746L5.839 34.3746H15.875C15.9621 34.8918 15.9969 35.4164 15.979 35.9406C16.0003 36.4303 15.9654 36.9208 15.875 37.4026H0.105L0 36.9846ZM30.597 24.2446C30.6551 23.6537 30.5822 23.0574 30.3836 22.4979C30.1851 21.9384 29.8656 21.4296 29.448 21.0076C28.4385 20.3139 27.2239 19.9825 26.002 20.0676C25.1281 20.0811 24.2559 20.1509 23.391 20.2766C22.6127 20.3894 21.8446 20.5639 21.094 20.7986C20.5601 19.844 20.3071 18.7579 20.364 17.6656C21.3118 17.3467 22.2928 17.1363 23.288 17.0386C24.3228 16.8651 25.3723 16.7951 26.421 16.8296C28.5528 16.6962 30.6625 17.3254 32.373 18.6046C33.731 19.7546 34.461 21.7376 34.461 24.3476V36.9826L31.119 37.6096C29.807 37.8176 28.479 37.9226 27.151 37.9226C25.995 37.9326 24.851 37.8266 23.705 37.6096C22.7616 37.4206 21.8707 37.0285 21.094 36.4606C20.3771 35.9523 19.802 35.2694 19.423 34.4766C18.9846 33.5656 18.7696 32.5632 18.796 31.5526C18.7518 30.5279 19.0054 29.5123 19.526 28.6286C19.9475 27.7721 20.5983 27.0493 21.406 26.5406C22.2485 25.999 23.1623 25.5773 24.121 25.2876C25.173 24.9876 26.264 24.8476 27.358 24.8696C28.0557 24.8436 28.7543 24.8784 29.446 24.9736C29.968 24.9736 30.386 25.0776 30.804 25.0776V24.2426L30.597 24.2446ZM30.597 28.0046C30.104 27.9796 29.615 27.9096 29.135 27.8046C28.508 27.8046 27.985 27.7006 27.569 27.7006C26.249 27.6217 24.9366 27.9498 23.809 28.6406C23.3968 28.9586 23.0676 29.3716 22.8494 29.8444C22.6312 30.3171 22.5306 30.8356 22.556 31.3556C22.4971 31.9315 22.6033 32.5122 22.8622 33.03C23.121 33.5478 23.5219 33.9812 24.018 34.2796C24.4659 34.5315 24.9667 34.6747 25.48 34.6976C25.9627 34.7807 26.4524 34.8155 26.942 34.8016C27.5705 34.819 28.1993 34.7843 28.822 34.6976L30.492 34.3846V28.0146L30.597 28.0046ZM38.742 17.3526C39.055 17.3526 39.264 17.2486 39.577 17.2486H41.247C41.56 17.2486 41.769 17.3526 42.082 17.3526C42.1388 17.5214 42.1737 17.6969 42.186 17.8746C42.186 18.1876 42.29 18.3966 42.29 18.7096C42.29 19.0226 42.394 19.3366 42.394 19.6496C42.391 19.8296 42.427 20.0066 42.498 20.1716L43.438 18.9186C43.844 18.5136 44.3 18.1626 44.796 17.8746C46.011 17.2016 47.376 16.8446 48.764 16.8306C49.864 16.8166 50.976 17.0306 52.001 17.4576C53.0081 17.8626 53.9008 18.5081 54.601 19.3376C55.3616 20.2598 55.9298 21.3251 56.272 22.4706C56.7132 23.9255 56.9247 25.4404 56.899 26.9606C57.0658 29.9405 56.0531 32.8663 54.08 35.1056C52.2 37.0896 49.58 38.0296 46.144 38.0296C45.5504 38.047 44.9565 38.0122 44.369 37.9256C43.7423 37.8209 43.2203 37.7166 42.803 37.6126V46.9066C42.49 46.9066 42.176 47.0106 41.759 47.0106H39.879C39.566 47.0106 39.252 46.9066 38.939 46.9066V17.3526H38.742ZM42.605 34.2706C43.1129 34.4583 43.6371 34.5983 44.171 34.6886C44.8627 34.7838 45.5613 34.8186 46.259 34.7926C47.159 34.8156 48.033 34.6726 48.859 34.3746C49.6313 34.1102 50.3171 33.6408 50.843 33.0166C51.4384 32.3055 51.8987 31.4914 52.201 30.6146C52.559 29.5014 52.7353 28.3378 52.723 27.1686C52.7886 25.4258 52.3922 23.6967 51.574 22.1566C50.761 20.8866 49.318 20.1566 47.814 20.2766C47.1745 20.2785 46.5396 20.3842 45.934 20.5896C45.3394 20.814 44.8038 21.1711 44.368 21.6336C43.8679 22.1407 43.4769 22.7447 43.219 23.4086C42.903 24.2416 42.761 25.1286 42.801 26.0086V34.2586L42.605 34.2706ZM61.611 20.3706H59.011C58.9173 20.1394 58.8816 19.8888 58.907 19.6406V17.9706C58.907 17.6576 59.011 17.4486 59.011 17.2406H65.381V37.4986C65.068 37.4986 64.754 37.6026 64.441 37.6026H62.561C62.248 37.6026 61.934 37.4986 61.621 37.4986L61.611 20.3706ZM73.829 28.4106C73.933 30.6036 74.456 32.2746 75.499 33.2146C76.8319 34.3483 78.558 34.911 80.303 34.7806C82.12 34.7906 83.925 34.4736 85.629 33.8406C85.8817 34.2961 86.058 34.79 86.151 35.3026C86.2707 35.8519 86.341 36.4108 86.361 36.9726C85.4624 37.3742 84.5144 37.655 83.542 37.8076C82.406 38.0246 81.242 38.1296 80.096 38.1206C78.4969 38.1836 76.9007 37.9357 75.396 37.3906C74.1883 36.8247 73.0919 36.0467 72.159 35.0936C71.2919 34.1331 70.6496 32.9914 70.279 31.7516C69.8516 30.4009 69.64 28.9912 69.652 27.5746C69.658 26.1666 69.832 24.7746 70.174 23.3976C70.533 22.1748 71.1369 21.0377 71.949 20.0556C72.779 19.1226 73.769 18.3556 74.873 17.7586C76.2414 17.1065 77.7436 16.7846 79.259 16.8186C80.4407 16.7672 81.6186 16.9848 82.7039 17.4552C83.7892 17.9255 84.7535 18.6362 85.524 19.5336C86.2668 20.3729 86.803 21.3742 87.09 22.4576C87.482 23.6706 87.66 24.9426 87.612 26.2176V27.3676C87.612 27.7856 87.508 28.0976 87.508 28.4116L73.829 28.4106ZM83.854 25.4866C83.8598 24.7785 83.7542 24.0739 83.541 23.3986C83.3264 22.779 83.0465 22.184 82.706 21.6236C82.3209 21.0996 81.8208 20.6709 81.244 20.3706C80.5927 20.0624 79.8757 19.9189 79.156 19.9526C78.4774 19.9182 77.7993 20.0311 77.1684 20.2834C76.5375 20.5358 75.9687 20.9217 75.501 21.4146C74.5765 22.5811 74.0302 24.0021 73.935 25.4876L83.854 25.4866ZM91.999 17.3426C92.312 17.3426 92.521 17.2386 92.834 17.2386H94.504C94.817 17.2386 95.026 17.3426 95.339 17.3426C95.4739 17.8538 95.5441 18.3799 95.548 18.9086C95.6326 19.461 95.6674 20.0199 95.652 20.5786C96.1845 19.6453 96.9374 18.8567 97.845 18.2816C98.8736 17.6303 100.074 17.3028 101.291 17.3416H101.918C102.099 17.3148 102.283 17.3516 102.44 17.4456C102.44 17.6456 102.544 17.9676 102.544 18.1756V19.0106C102.561 19.3275 102.526 19.645 102.44 19.9506C102.44 20.2636 102.336 20.5776 102.336 20.8906C102.136 20.8906 101.918 20.7866 101.709 20.7866H101.187C100.513 20.7802 99.8424 20.886 99.203 21.0996C98.5377 21.3037 97.9297 21.6613 97.428 22.1436C96.8469 22.7275 96.4168 23.4441 96.175 24.2316C95.8481 25.314 95.7068 26.444 95.757 27.5736V37.6106C95.444 37.6106 95.13 37.7146 94.817 37.7146H92.937C92.624 37.7146 92.207 37.6106 91.893 37.6106V17.3526L91.999 17.3426ZM69.129 5.44858H65.275L67.99 2.73358C67.79 2.42058 67.572 2.21158 67.363 1.89858C67.0629 1.68137 66.7834 1.43701 66.528 1.16858L63.805 3.88058V0.110581C63.4641 0.0243974 63.1122 -0.010652 62.761 0.00658047C62.4097 -0.0158808 62.057 0.0192493 61.717 0.110581V3.97458L58.897 1.15458C58.573 1.34053 58.2892 1.58901 58.062 1.88558C57.862 2.19858 57.54 2.40758 57.332 2.72058L60.047 5.43558H56.275L56.171 6.47958C56.1474 6.83424 56.1826 7.19036 56.275 7.53358H60.139L57.319 10.3536C57.732 10.9736 58.264 11.5076 58.885 11.9196L61.6 9.20458V13.0686C61.9409 13.1548 62.2928 13.1898 62.644 13.1726C62.9953 13.195 63.348 13.1599 63.688 13.0686V9.20458L66.403 11.9196C66.727 11.7336 67.0108 11.4851 67.238 11.1886C67.5072 10.934 67.7517 10.6544 67.968 10.3536L65.275 7.64058H69.139C69.2252 7.29965 69.2602 6.94781 69.243 6.59658C69.265 6.21022 69.23 5.82273 69.139 5.44658L69.129 5.44858ZM64.325 6.49258C64.3153 6.95253 64.2446 7.40917 64.115 7.85058C63.685 8.02058 63.22 8.09058 62.757 8.05058C62.2971 8.04085 61.8404 7.97023 61.399 7.84058C61.229 7.41058 61.159 6.94558 61.199 6.48258C61.2087 6.02263 61.2794 5.56599 61.409 5.12458C61.839 4.95458 62.304 4.88458 62.767 4.92458C63.227 4.93432 63.6836 5.00493 64.125 5.13458C64.2455 5.57795 64.3156 6.0335 64.334 6.49258H64.325Z" fill="#222261"/>
</svg>
